<svg width="14" height="15" viewBox="0 0 14 15" fill="none" xmlns="http://www.w3.org/2000/svg">
<path d="M6 2.46875C6 1.65625 5.3125 0.96875 4.5 0.96875H1.5C0.65625 0.96875 0 1.65625 0 2.46875V13.4688C0 14.3125 0.65625 14.9688 1.5 14.9688H4.5C5.3125 14.9688 6 14.3125 6 13.4688V2.46875ZM4.5 13.2812C4.5 13.4062 4.40625 13.4688 4.3125 13.4688H1.6875C1.5625 13.4688 1.5 13.4062 1.5 13.2812V2.65625C1.5 2.5625 1.5625 2.46875 1.6875 2.46875H4.3125C4.40625 2.46875 4.5 2.5625 4.5 2.65625V13.2812ZM14 2.46875C14 1.65625 13.3125 0.96875 12.5 0.96875H9.5C8.65625 0.96875 8 1.65625 8 2.46875V13.4688C8 14.3125 8.65625 14.9688 9.5 14.9688H12.5C13.3125 14.9688 14 14.3125 14 13.4688V2.46875ZM12.5 13.2812C12.5 13.4062 12.4062 13.4688 12.3125 13.4688H9.6875C9.5625 13.4688 9.5 13.4062 9.5 13.2812V2.65625C9.5 2.5625 9.5625 2.46875 9.6875 2.46875H12.3125C12.4062 2.46875 12.5 2.5625 12.5 2.65625V13.2812Z" fill="#F8F9FA"/>
</svg>
