<svg width="24" height="24" viewBox="0 0 24 24" fill="none" xmlns="http://www.w3.org/2000/svg">
<path d="M17.3125 7.15625C16.9688 6.9375 16.5 7.0625 16.2812 7.40625C16.0625 7.75 16.1562 8.21875 16.5 8.4375C17.75 9.21875 18.5 10.5625 18.5 12C18.5 13.4688 17.75 14.8125 16.5 15.5938C16.1562 15.8125 16.0625 16.2812 16.2812 16.625C16.4688 16.9688 16.9375 17.0938 17.3125 16.875C18.9688 15.8125 20 14 20 12C20 10.0312 18.9688 8.21875 17.3125 7.15625ZM15.5625 9.625C15.1875 9.40625 14.75 9.53125 14.5312 9.90625C14.3438 10.2812 14.4688 10.7188 14.8438 10.9375C15.2188 11.1562 15.5 11.5625 15.5 12C15.5 12.4688 15.2188 12.875 14.8438 13.0938C14.4688 13.3125 14.3438 13.75 14.5312 14.125C14.75 14.5 15.1875 14.625 15.5625 14.4062C16.4375 13.9375 17 13 17 12C17 11.0312 16.4375 10.0938 15.5625 9.625ZM12.2188 6C12.0312 6 11.8438 6.09375 11.7188 6.25L8.9375 9H5.75C5.3125 9 5 9.34375 5 9.75V14.25C5 14.6875 5.3125 15 5.75 15H8.9375L11.7188 17.7812C11.8438 17.9375 12.0312 18 12.2188 18C12.625 18 13 17.7188 13 17.25V6.78125C13 6.3125 12.625 6 12.2188 6ZM11.5 15.4688L9.53125 13.5H6.5V10.5H9.53125L11.5 8.5625V15.4688Z" fill="#333333"/>
</svg>
