<svg width="15" height="12" viewBox="0 0 15 12" fill="none" xmlns="http://www.w3.org/2000/svg">
<path d="M12.3125 1.15625C11.9688 0.9375 11.5 1.0625 11.2812 1.40625C11.0625 1.75 11.1562 2.21875 11.5 2.4375C12.75 3.21875 13.5 4.5625 13.5 6C13.5 7.46875 12.75 8.8125 11.5 9.59375C11.1562 9.8125 11.0625 10.2812 11.2812 10.625C11.4688 10.9688 11.9375 11.0938 12.3125 10.875C13.9688 9.8125 15 8 15 6C15 4.03125 13.9688 2.21875 12.3125 1.15625ZM10.5625 3.625C10.1875 3.40625 9.75 3.53125 9.53125 3.90625C9.34375 4.28125 9.46875 4.71875 9.84375 4.9375C10.2188 5.15625 10.5 5.5625 10.5 6C10.5 6.46875 10.2188 6.875 9.84375 7.09375C9.46875 7.3125 9.34375 7.75 9.53125 8.125C9.75 8.5 10.1875 8.625 10.5625 8.40625C11.4375 7.9375 12 7 12 6C12 5.03125 11.4375 4.09375 10.5625 3.625ZM7.21875 0C7.03125 0 6.84375 0.09375 6.71875 0.25L3.9375 3H0.75C0.3125 3 0 3.34375 0 3.75V8.25C0 8.6875 0.3125 9 0.75 9H3.9375L6.71875 11.7812C6.84375 11.9375 7.03125 12 7.21875 12C7.625 12 8 11.7188 8 11.25V0.78125C8 0.3125 7.625 0 7.21875 0ZM6.5 9.46875L4.53125 7.5H1.5V4.5H4.53125L6.5 2.5625V9.46875Z" fill="#F8F9FA"/>
</svg>
