<svg width="17" height="12" viewBox="0 0 17 12" fill="none" xmlns="http://www.w3.org/2000/svg">
<path d="M7.21875 0C7.03125 0 6.84375 0.09375 6.71875 0.25L3.9375 3H0.75C0.3125 3 0 3.34375 0 3.75V8.25C0 8.6875 0.3125 9 0.75 9H3.9375L6.71875 11.7812C6.84375 11.9375 7.03125 12 7.21875 12C7.625 12 8 11.7188 8 11.25V0.78125C8 0.3125 7.625 0 7.21875 0ZM6.5 9.46875L5 7.96875L4.53125 7.5H1.5V4.5H4.53125L5 4.0625L6.5 2.5625V9.46875ZM14.5312 6L15.8438 4.71875C16.0312 4.53125 16.0312 4.21875 15.8438 4L15.5 3.65625C15.2812 3.46875 14.9688 3.46875 14.7812 3.65625L13.5 4.96875L12.1875 3.65625C12 3.46875 11.6875 3.46875 11.5 3.65625L11.125 4C10.9375 4.21875 10.9375 4.53125 11.125 4.71875L12.4375 6L11.125 7.3125C10.9375 7.5 10.9375 7.8125 11.125 8L11.5 8.375C11.6875 8.5625 12 8.5625 12.1875 8.375L13.5 7.0625L14.7812 8.375C14.9688 8.5625 15.2812 8.5625 15.5 8.375L15.8438 8C16.0312 7.8125 16.0312 7.5 15.8438 7.3125L14.5312 6Z" fill="#F8F9FA"/>
</svg>
